name D:\school\WTK\thesis\model\3dpredictsim\Results\batch_windlass\Pog_s1_tmt_bCst_d00_k800_WL10_ig24_act_TTC.mot
datacolumns 128
datarows 4
range 0.00000000 0.03700781
endheader
time	pelvis_tilt	pelvis_list	pelvis_rotation	pelvis_tx	pelvis_ty	pelvis_tz	hip_flexion_l	hip_adduction_l	hip_rotation_l	hip_flexion_r	hip_adduction_r	hip_rotation_r	knee_angle_l	knee_angle_r	ankle_angle_l	ankle_angle_r	subtalar_angle_l	subtalar_angle_r	tmt_angle_l	tmt_angle_r	mtp_angle_l	mtp_angle_r	lumbar_extension	lumbar_bending	lumbar_rotation	arm_flex_l	arm_add_l	arm_rot_l	arm_flex_r	arm_add_r	arm_rot_r	elbow_flex_l	elbow_flex_r	pro_sup_l	pro_sup_r	glut_med1_l/activation	glut_med2_l/activation	glut_med3_l/activation	glut_min1_l/activation	glut_min2_l/activation	glut_min3_l/activation	semimem_l/activation	semiten_l/activation	bifemlh_l/activation	bifemsh_l/activation	sar_l/activation	add_long_l/activation	add_brev_l/activation	add_mag1_l/activation	add_mag2_l/activation	add_mag3_l/activation	tfl_l/activation	pect_l/activation	grac_l/activation	glut_max1_l/activation	glut_max2_l/activation	glut_max3_l/activation	iliacus_l/activation	psoas_l/activation	quad_fem_l/activation	gem_l/activation	peri_l/activation	rect_fem_l/activation	vas_med_l/activation	vas_int_l/activation	vas_lat_l/activation	med_gas_l/activation	lat_gas_l/activation	soleus_l/activation	tib_post_l/activation	flex_dig_l/activation	flex_hal_l/activation	tib_ant_l/activation	per_brev_l/activation	per_long_l/activation	per_tert_l/activation	ext_dig_l/activation	ext_hal_l/activation	ercspn_l/activation	intobl_l/activation	extobl_l/activation	glut_med1_r/activation	glut_med2_r/activation	glut_med3_r/activation	glut_min1_r/activation	glut_min2_r/activation	glut_min3_r/activation	semimem_r/activation	semiten_r/activation	bifemlh_r/activation	bifemsh_r/activation	sar_r/activation	add_long_r/activation	add_brev_r/activation	add_mag1_r/activation	add_mag2_r/activation	add_mag3_r/activation	tfl_r/activation	pect_r/activation	grac_r/activation	glut_max1_r/activation	glut_max2_r/activation	glut_max3_r/activation	iliacus_r/activation	psoas_r/activation	quad_fem_r/activation	gem_r/activation	peri_r/activation	rect_fem_r/activation	vas_med_r/activation	vas_int_r/activation	vas_lat_r/activation	med_gas_r/activation	lat_gas_r/activation	soleus_r/activation	tib_post_r/activation	flex_dig_r/activation	flex_hal_r/activation	tib_ant_r/activation	per_brev_r/activation	per_long_r/activation	per_tert_r/activation	ext_dig_r/activation	ext_hal_r/activation	ercspn_r/activation	intobl_r/activation	extobl_r/activation	
          0.00000000	         -2.92996065	         -0.53059009	         10.20295452	          0.00000000	          0.85046370	         -0.00189815	        -15.80651723	         -3.61241439	          6.20453558	         34.07596622	         -1.90262937	         -2.80166322	        -19.25708503	        -20.96628932	        -13.91939061	         -5.26736500	         18.66676958	          8.49536220	         -3.21285469	          0.01281068	         36.93255424	          0.18784870	          1.06249588	         -2.90940102	         -3.32340845	          2.44071691	        -13.51855292	         15.25627142	        -14.33166278	        -13.92853243	         14.78324724	         42.91886353	         18.77081743	         86.51662706	         86.51662706	          0.13012644	          0.07267811	          0.07203177	          0.15568236	          0.12158430	          0.08761766	          0.05000077	          0.05000005	          0.05000005	          0.05000018	          0.10562784	          0.05000057	          0.05000011	          0.05000010	          0.05000019	          0.05000011	          0.19612881	          0.05000059	          0.05000018	          0.05000107	          0.05000072	          0.05000032	          0.37126055	          0.42204400	          0.05000004	          0.05000026	          0.07267397	          0.26902686	          0.08706787	          0.09400371	          0.08831707	          0.14152114	          0.21519515	          0.05000000	          0.16118379	          0.17828122	          0.18352898	          0.06450274	          0.46528969	          0.37397474	          0.47870822	          0.44717389	          0.26277826	          0.05000000	          0.05234525	          0.06739904	          0.05776548	          0.05000061	          0.05000061	          0.05000630	          0.05000147	          0.05000027	          0.10896255	          0.08761502	          0.10799787	          0.08761508	          0.06156025	          0.07398696	          0.06191727	          0.10563536	          0.05000109	          0.06811786	          0.06028139	          0.05000186	          0.09008217	          0.05000016	          0.06891188	          0.07876435	          0.07772768	          0.07745447	          0.12154507	          0.06027878	          0.07121642	          0.05000656	          0.06427174	          0.07756331	          0.07917680	          0.06851578	          0.06053790	          0.06027994	          0.05320266	          0.05000346	          0.06027995	          0.32980067	          0.15352845	          0.10032404	          0.05000020	          0.49473098	          0.05000001	          0.05000000	          0.15352801	          0.15261575	
          0.01233594	         -2.92760884	         -0.51850839	         10.43983226	          0.02029906	          0.84880722	         -0.00150821	        -15.94691006	         -3.98065130	          5.94724672	         33.64715557	         -1.68658862	         -2.58483426	        -20.36494678	        -21.49268791	        -17.47094126	         -5.61556059	         18.85437091	          7.93688777	         -3.67610861	          0.03876655	         38.29474001	          0.22446428	          1.29979919	         -2.68099607	         -3.41686175	          2.03622483	        -13.58819506	         15.63220961	        -15.89298926	        -13.91414634	         15.19050962	         44.03704155	         18.72606983	         86.51662706	         86.51662706	          0.10793513	          0.06028384	          0.05974773	          0.12913283	          0.10084973	          0.07267566	          0.05000288	          0.06027995	          0.06027988	          0.06028016	          0.08761460	          0.14506179	          0.15891243	          0.20939428	          0.05000102	          0.05000050	          0.16268165	          0.10139965	          0.07267403	          0.05000044	          0.05000022	          0.05000011	          0.30794698	          0.35006998	          0.05000053	          0.05000595	          0.06028047	          0.22314788	          0.07221960	          0.07797263	          0.07325577	          0.11738658	          0.17849647	          0.05000000	          0.13369603	          0.14787772	          0.15223055	          0.29388057	          0.49789184	          0.37470929	          0.71395249	          0.60926322	          0.21796493	          0.05123766	          0.05181505	          0.06027999	          0.22076777	          0.05000010	          0.11702677	          0.05000011	          0.05000023	          0.05000033	          0.09038043	          0.07267345	          0.08958026	          0.07267350	          0.05106210	          0.06136951	          0.05135816	          0.08762086	          0.16073656	          0.12535569	          0.05000123	          0.05000055	          0.07471989	          0.06027998	          0.14077101	          0.14933852	          0.06447226	          0.06424565	          0.10081724	          0.05000013	          0.10363471	          0.06027989	          0.26977076	          0.24897298	          0.22240314	          0.05683132	          0.05021396	          0.05000000	          0.05000000	          0.05000004	          0.05000002	          0.56375777	          0.12734620	          0.08321510	          0.47870829	          0.57590360	          0.44827141	          0.05000000	          0.12734584	          0.12658915	
          0.02467188	         -2.91934828	         -0.51312387	         10.63325157	          0.04066779	          0.84680027	         -0.00112663	        -15.86879703	         -4.32250565	          5.69463276	         33.10266963	         -1.39846389	         -2.31400402	        -21.91648922	        -22.79751525	        -20.57740267	         -5.40561622	         18.98230392	          7.31434083	         -3.85089226	         -0.04136258	         37.87243399	          0.12305391	          1.53188282	         -2.42252118	         -3.49077647	          1.60116114	        -13.67579773	         15.97676292	        -17.39396012	        -13.90317850	         15.69583793	         45.12331923	         18.60646998	         86.51662706	         86.51662706	          0.13138438	          0.05000338	          0.05320485	          0.10711096	          0.08365118	          0.06028185	          0.05000044	          0.05000008	          0.05000010	          0.05000019	          0.07267313	          0.12032345	          0.24012370	          0.17368496	          0.05816759	          0.05000114	          0.13493846	          0.08410742	          0.06028049	          0.05000477	          0.05000634	          0.05941285	          0.25543070	          0.29037018	          0.06028031	          0.05000179	          0.05000046	          0.18509296	          0.10610819	          0.09625834	          0.08177525	          0.09736785	          0.14805626	          0.05000292	          0.11089594	          0.12265914	          0.12626965	          0.24376313	          0.41298304	          0.31492012	          0.70179272	          0.78559170	          0.51707410	          0.09844781	          0.05000000	          0.05000005	          0.19122588	          0.33602026	          0.51548767	          0.09292300	          0.05000199	          0.40868588	          0.07496725	          0.06027997	          0.07430354	          0.06028001	          0.05000036	          0.06028098	          0.07267343	          0.07267832	          0.13332510	          0.12677787	          0.05000002	          0.06028108	          0.06197751	          0.05000006	          0.23286764	          0.18911155	          0.06027995	          0.05471649	          0.08362421	          0.25756246	          0.38306097	          0.05000001	          0.25045275	          0.25754465	          0.25574228	          0.05000007	          0.05119368	          0.05869697	          0.15790414	          0.09957741	          0.08911006	          0.46761634	          0.10562900	          0.06902387	          0.39707093	          0.47769087	          0.37182467	          0.05859840	          0.10562869	          0.10500105	
          0.03700781	         -2.91034764	         -0.51927354	         10.77629475	          0.06072655	          0.84493909	         -0.00074321	        -15.57840894	         -4.65929720	          5.45652186	         32.50249485	         -1.04683121	         -2.02025159	        -23.80722144	        -24.31796186	        -23.22954394	         -4.14036229	         19.05585413	          6.65972726	         -3.74543796	          0.33388241	         35.38531683	         -0.00128703	          1.73851556	         -2.13422213	         -3.54577561	          1.21577718	        -13.74597445	         16.30900049	        -18.72990088	        -13.87682947	         16.30851947	         46.04022632	         18.33410026	         86.51662706	         86.51662706	          0.10897854	          0.05000013	          0.05000002	          0.08884465	          0.06938561	          0.05000164	          0.05000094	          0.05000003	          0.05000008	          0.05000002	          0.06027974	          0.09980390	          0.19917386	          0.31740311	          0.05000069	          0.13771400	          0.11192650	          0.06976407	          0.05000049	          0.05000074	          0.05000037	          0.05000014	          0.21187037	          0.24085139	          0.05000032	          0.05000020	          0.05000014	          0.15352780	          0.10049063	          0.09608383	          0.08280117	          0.08076305	          0.12280723	          0.05000002	          0.09198410	          0.10174126	          0.10473604	          0.25840335	          0.34255428	          0.27434123	          0.58211139	          0.88234812	          0.42889395	          0.14701277	          0.05000000	          0.05000000	          0.27428884	          0.47941479	          0.64964368	          0.07707627	          0.33590883	          0.43623015	          0.06218258	          0.05000008	          0.06163206	          0.05000008	          0.05000007	          0.05000086	          0.06027995	          0.06028401	          0.11058828	          0.10515760	          0.08761556	          0.05000100	          0.05140810	          0.27948742	          0.26314710	          0.15686111	          0.05000001	          0.05000001	          0.24233482	          0.21363863	          0.31773503	          0.06028100	          0.44550767	          0.42795485	          0.40156226	          0.05000018	          0.06027997	          0.05000000	          0.16924680	          0.08259840	          0.10954501	          0.38787056	          0.08761538	          0.05725281	          0.32935575	          0.39622701	          0.30841493	          0.05459861	          0.08761511	          0.08709451	
